<svg xmlns="http://www.w3.org/2000/svg" width="512" height="512" viewBox="0 0 512 512">
  <g fill="none" fill-rule="evenodd">
    <circle cx="256" cy="256" r="256" fill="#2E282A"/>
    <g fill="#17BEBB" transform="translate(94 167)">
      <path d="M71.5094951,176.273035 C70.0504863,175.400676 69.0291802,173.655959 69.0291802,171.911243 L69.1750811,140.942519 L35.3260769,140.942519 C14.462251,140.942519 6,132.509721 6,111.718512 L6,34.2240068 C6,13.432798 14.462251,5 35.3260769,5 L293.424734,5 C316.477073,5 321,15.7590871 321,34.2240068 L321,111.863905 C321,132.655114 312.537749,141.087912 291.673923,141.087912 L147.815655,141.087912 L76.3242242,176.709214 C75.5947198,176.854607 74.8652154,177 74.135711,177 C73.2603057,177 72.2389995,176.709214 71.5094951,176.273035 Z"/>
      <path d="M70.0824456,178 C69.1820287,178 68.1315424,177.69907 67.381195,177.247675 C65.8805002,176.344886 64.8300139,174.539307 64.8300139,172.733728 L64.9800834,140.6847 L30.1639648,140.6847 C8.70402964,140.6847 0,131.957735 0,110.441251 L0,30.2434489 C0,8.72696534 8.70402964,0 30.1639648,0 L295.636869,0 C319.347846,0 324,11.1344041 324,30.2434489 L324,110.591716 C324,132.108199 315.29597,140.835165 293.836035,140.835165 L145.867531,140.835165 L72.3334877,177.69907 C71.5831403,177.849535 70.832793,178 70.0824456,178 L70.0824456,178 Z M30.6597325,11 C15.0520059,11 11,15.0684932 11,30.739726 L11,111.205479 C11,126.876712 15.0520059,130.945205 30.6597325,130.945205 L70.5794948,130.945205 C71.9301634,130.945205 73.2808321,131.547945 74.3313522,132.452055 C75.3818722,133.506849 75.8320951,134.863014 75.8320951,136.219178 L75.8320951,165 L142.76523,131.39726 C143.515602,131.09589 144.265973,130.794521 145.166419,130.794521 L294.340267,130.794521 C309.947994,130.794521 314,126.726027 314,111.054795 L314,30.739726 C314,22.3013699 312.94948,17.3287671 310.698366,14.7671233 C309.347697,13.109589 306.196137,11 296.141159,11 L30.6597325,11 L30.6597325,11 Z"/>
    </g>
  </g>
</svg>
